<svg xmlns="http://www.w3.org/2000/svg" width="646.4" height="274" font-family="Noto Sans Mono, DejaVu Sans Mono, monospace" font-size="16"><rect width="100%" height="100%" fill="#1e1e1e"/><g fill="#d4d4d4"><rect x="16" y="16" width="556.8" height="22" fill="rgb(52,53,65)"/><text x="16" y="32" xml:space="preserve"   >                                                          </text><rect x="572.8" y="16" width="48" height="22" fill="rgb(52,53,65)"/><text x="572.8" y="32" xml:space="preserve" fill="rgb(112,113,125)"  >14:32</text><rect x="620.8" y="16" width="9.6" height="22" fill="rgb(52,53,65)"/><text x="620.8" y="32" xml:space="preserve"   > </text><rect x="16" y="38" width="9.6" height="22" fill="rgb(52,53,65)"/><text x="16" y="54" xml:space="preserve"   > </text><rect x="25.6" y="38" width="172.79999999999998" height="22" fill="rgb(52,53,65)"/><text x="25.6" y="54" xml:space="preserve" fill="rgb(212,212,212)"  >fix the flaky test</text><rect x="198.4" y="38" width="432" height="22" fill="rgb(52,53,65)"/><text x="198.4" y="54" xml:space="preserve"   >                                             </text><rect x="16" y="60" width="614.4" height="22" fill="rgb(52,53,65)"/><text x="16" y="76" xml:space="preserve"   >                                                                </text><text x="16" y="98" xml:space="preserve"   >                                                          </text><text x="572.8" y="98" xml:space="preserve" fill="rgb(100,100,100)"  >14:32</text><text x="620.8" y="98" xml:space="preserve"   > </text><text x="16" y="120" xml:space="preserve"   > The race is in </text><text x="169.6" y="120" xml:space="preserve" fill="rgb(138,190,183)"  >setup()</text><text x="236.79999999999998" y="120" xml:space="preserve"   >. Running the suite.                     </text><rect x="16" y="148" width="556.8" height="22" fill="rgb(40,50,40)"/><text x="16" y="164" xml:space="preserve"   >                                                          </text><rect x="572.8" y="148" width="48" height="22" fill="rgb(40,50,40)"/><text x="572.8" y="164" xml:space="preserve" fill="rgb(100,110,100)"  >14:33</text><rect x="620.8" y="148" width="9.6" height="22" fill="rgb(40,50,40)"/><text x="620.8" y="164" xml:space="preserve"   > </text><rect x="16" y="170" width="9.6" height="22" fill="rgb(40,50,40)"/><text x="16" y="186" xml:space="preserve"   > </text><rect x="25.6" y="170" width="38.4" height="22" fill="rgb(40,50,40)"/><text x="25.6" y="186" xml:space="preserve" fill="rgb(212,212,212)"  >bash</text><rect x="64" y="170" width="566.4" height="22" fill="rgb(40,50,40)"/><text x="64" y="186" xml:space="preserve"   >                                                           </text><rect x="16" y="192" width="9.6" height="22" fill="rgb(40,50,40)"/><text x="16" y="208" xml:space="preserve"   > </text><rect x="25.6" y="192" width="96" height="22" fill="rgb(40,50,40)"/><text x="25.6" y="208" xml:space="preserve" fill="rgb(128,128,128)"  >12 passing</text><rect x="121.6" y="192" width="508.79999999999995" height="22" fill="rgb(40,50,40)"/><text x="121.6" y="208" xml:space="preserve"   >                                                     </text><rect x="16" y="214" width="614.4" height="22" fill="rgb(40,50,40)"/><text x="16" y="230" xml:space="preserve"   >                                                                </text></g></svg>
